<svg xmlns="http://www.w3.org/2000/svg" xmlns:xlink="http://www.w3.org/1999/xlink" width="2000" zoomAndPan="magnify" viewBox="0 0 1500 1499.999933" height="2000" preserveAspectRatio="xMidYMid meet" version="1.0"><defs><g/></defs><g fill="#6f8f39" fill-opacity="1"><g transform="translate(58.631368, 502.035698)"><g/></g></g><g fill="#6f8f39" fill-opacity="1"><g transform="translate(122.702255, 502.035698)"><g/></g></g><g fill="#6f8f39" fill-opacity="1"><g transform="translate(186.773141, 502.035698)"><g/></g></g><g fill="#6f8f39" fill-opacity="1"><g transform="translate(250.844028, 502.035698)"><g/></g></g><g fill="#6f8f39" fill-opacity="1"><g transform="translate(314.914914, 502.035698)"><g/></g></g><g fill="#6f8f39" fill-opacity="1"><g transform="translate(378.995048, 502.035698)"><g><path d="M 165.71875 -161.875 L 81.375 -43.78125 L 167.859375 -43.78125 C 167.859375 -34.8125 165.9375 -27.050781 162.09375 -20.5 C 158.25 -13.945312 153.160156 -8.890625 146.828125 -5.328125 C 140.492188 -1.773438 133.550781 0 126 0 L 5.34375 0 C 5.34375 -3.132812 5.875 -6.550781 6.9375 -10.25 C 8.007812 -13.945312 9.21875 -17.46875 10.5625 -20.8125 C 11.914062 -24.164062 13.09375 -26.910156 14.09375 -29.046875 C 15.09375 -31.179688 15.59375 -32.25 15.59375 -32.25 C 15.59375 -32.25 15.984375 -32.992188 16.765625 -34.484375 C 17.546875 -35.984375 18.46875 -37.65625 19.53125 -39.5 C 20.601562 -41.351562 21.640625 -42.921875 22.640625 -44.203125 C 26.054688 -48.617188 30.429688 -54.382812 35.765625 -61.5 C 41.109375 -68.625 46.945312 -76.347656 53.28125 -84.671875 C 59.613281 -93.003906 65.878906 -101.332031 72.078125 -109.65625 C 78.273438 -117.988281 83.96875 -125.609375 89.15625 -132.515625 C 94.351562 -139.421875 98.519531 -144.9375 101.65625 -149.0625 C 104.789062 -153.195312 106.359375 -155.265625 106.359375 -155.265625 L 21.5625 -155.265625 C 21.5625 -164.234375 23.410156 -171.957031 27.109375 -178.4375 C 30.816406 -184.914062 35.765625 -189.863281 41.953125 -193.28125 C 48.148438 -196.695312 55.023438 -198.40625 62.578125 -198.40625 L 177.6875 -198.40625 C 177.6875 -191.144531 176.546875 -184.519531 174.265625 -178.53125 C 171.984375 -172.550781 169.132812 -167 165.71875 -161.875 Z M 165.71875 -161.875 "/></g></g></g><g fill="#6f8f39" fill-opacity="1"><g transform="translate(562.024192, 502.035698)"><g><path d="M 153.984375 -183.234375 C 155.972656 -180.097656 157.535156 -176.644531 158.671875 -172.875 C 159.816406 -169.101562 160.390625 -165.15625 160.390625 -161.03125 L 160.390625 -41 C 160.390625 -33.03125 158.394531 -25.945312 154.40625 -19.75 C 150.414062 -13.5625 145.039062 -8.546875 138.28125 -4.703125 C 131.519531 -0.859375 124.082031 1.421875 115.96875 2.140625 C 113.40625 2.421875 109.703125 2.628906 104.859375 2.765625 C 100.015625 2.910156 95.101562 3.019531 90.125 3.09375 C 85.144531 3.164062 81.226562 3.203125 78.375 3.203125 C 74.25 3.203125 70.265625 3.09375 66.421875 2.875 C 62.578125 2.664062 58.875 2.421875 55.3125 2.140625 C 49.1875 1.710938 43.382812 0.46875 37.90625 -1.59375 C 32.425781 -3.664062 27.691406 -6.691406 23.703125 -10.671875 C 20.566406 -13.234375 18.429688 -15.941406 17.296875 -18.796875 C 15.160156 -22.066406 13.519531 -25.585938 12.375 -29.359375 C 11.238281 -33.140625 10.671875 -37.019531 10.671875 -41 L 10.671875 -161.03125 C 10.671875 -169 12.695312 -176.078125 16.75 -182.265625 C 20.8125 -188.460938 26.1875 -193.484375 32.875 -197.328125 C 39.570312 -201.171875 47.050781 -203.453125 55.3125 -204.171875 C 63.144531 -205.023438 71.1875 -205.453125 79.4375 -205.453125 C 82.144531 -205.453125 85.921875 -205.378906 90.765625 -205.234375 C 95.609375 -205.085938 100.410156 -204.941406 105.171875 -204.796875 C 109.941406 -204.660156 113.539062 -204.453125 115.96875 -204.171875 C 122.082031 -203.742188 127.878906 -202.492188 133.359375 -200.421875 C 138.847656 -198.359375 143.585938 -195.335938 147.578125 -191.359375 C 150.703125 -188.796875 152.835938 -186.085938 153.984375 -183.234375 Z M 115.96875 -54.671875 L 115.96875 -148.421875 C 115.394531 -151.835938 114.078125 -154.578125 112.015625 -156.640625 C 109.953125 -158.710938 107.140625 -159.75 103.578125 -159.75 L 67.484375 -159.953125 C 64.066406 -159.953125 61.289062 -158.882812 59.15625 -156.75 C 57.019531 -154.613281 55.738281 -151.910156 55.3125 -148.640625 L 55.3125 -54.671875 C 55.738281 -51.398438 57.019531 -48.695312 59.15625 -46.5625 C 61.289062 -44.425781 64.140625 -43.359375 67.703125 -43.359375 L 103.578125 -43.359375 C 107.140625 -43.359375 109.953125 -44.425781 112.015625 -46.5625 C 114.078125 -48.695312 115.394531 -51.398438 115.96875 -54.671875 Z M 115.96875 -54.671875 "/></g></g></g><g fill="#6f8f39" fill-opacity="1"><g transform="translate(733.52058, 502.035698)"><g><path d="M 195.40625 -201.171875 L 195.40625 -49.546875 C 195.40625 -40.296875 193.160156 -31.929688 188.671875 -24.453125 C 184.191406 -16.972656 178.210938 -10.988281 170.734375 -6.5 C 163.265625 -2.019531 154.90625 0.21875 145.65625 0.21875 L 145.65625 -120.015625 L 103.359375 -69.625 L 60.65625 -118.3125 L 60.65625 -49.546875 C 60.65625 -40.296875 58.410156 -31.929688 53.921875 -24.453125 C 49.441406 -16.972656 43.425781 -10.988281 35.875 -6.5 C 28.332031 -2.019531 19.929688 0.21875 10.671875 0.21875 L 10.671875 -151.84375 C 10.671875 -160.957031 12.910156 -169.285156 17.390625 -176.828125 C 21.878906 -184.378906 27.894531 -190.394531 35.4375 -194.875 C 42.988281 -199.363281 51.394531 -201.609375 60.65625 -201.609375 L 103.359375 -138.171875 L 145.65625 -201.171875 Z M 195.40625 -201.171875 "/></g></g></g><g fill="#6f8f39" fill-opacity="1"><g transform="translate(940.04243, 502.035698)"><g><path d="M 130.265625 -111.265625 C 135.960938 -106.566406 140.128906 -101.015625 142.765625 -94.609375 C 145.398438 -88.203125 146.71875 -81.222656 146.71875 -73.671875 L 146.71875 -55.734375 C 146.71875 -49.753906 145.6875 -43.523438 143.625 -37.046875 C 141.5625 -30.578125 138.460938 -24.597656 134.328125 -19.109375 C 130.203125 -13.628906 125.179688 -9.179688 119.265625 -5.765625 C 113.359375 -2.347656 106.5625 -0.640625 98.875 -0.640625 L 57.875 -0.640625 C 53.175781 -0.640625 49.117188 -1.242188 45.703125 -2.453125 C 42.285156 -3.660156 39.296875 -5.117188 36.734375 -6.828125 C 33.316406 -4.410156 29.398438 -2.523438 24.984375 -1.171875 C 20.566406 0.179688 15.796875 0.859375 10.671875 0.859375 L 10.671875 -158.03125 C 10.671875 -165.863281 12.378906 -173.019531 15.796875 -179.5 C 19.210938 -185.976562 23.984375 -191.207031 30.109375 -195.1875 C 36.234375 -199.175781 43.425781 -201.316406 51.6875 -201.609375 C 52.25 -201.609375 52.816406 -201.609375 53.390625 -201.609375 L 85 -201.609375 C 91.550781 -201.609375 98.0625 -200.253906 104.53125 -197.546875 C 111.007812 -194.835938 116.914062 -191.097656 122.25 -186.328125 C 127.59375 -181.554688 131.867188 -175.96875 135.078125 -169.5625 C 138.285156 -163.15625 139.890625 -156.320312 139.890625 -149.0625 C 139.890625 -141.800781 139.640625 -136.175781 139.140625 -132.1875 C 138.640625 -128.207031 137.960938 -125.113281 137.109375 -122.90625 C 136.253906 -120.695312 135.21875 -118.804688 134 -117.234375 C 132.789062 -115.671875 131.546875 -113.679688 130.265625 -111.265625 Z M 105.71875 -57.015625 L 105.71875 -67.90625 C 105.71875 -72.601562 104.007812 -76.625 100.59375 -79.96875 C 97.175781 -83.320312 93.257812 -84.925781 88.84375 -84.78125 L 53.8125 -84.78125 L 53.8125 -41.640625 C 53.8125 -41.359375 53.8125 -41.109375 53.8125 -40.890625 C 53.8125 -40.679688 53.8125 -40.4375 53.8125 -40.15625 L 88.84375 -40.15625 C 93.257812 -40.4375 97.175781 -42.140625 100.59375 -45.265625 C 104.007812 -48.398438 105.71875 -52.316406 105.71875 -57.015625 Z M 83.9375 -162.953125 L 53.8125 -162.953125 L 53.8125 -121.09375 L 85 -121.09375 C 88.84375 -121.09375 92.113281 -122.441406 94.8125 -125.140625 C 97.519531 -127.847656 98.875 -131.125 98.875 -134.96875 L 98.875 -149.0625 C 98.875 -152.90625 97.34375 -156.179688 94.28125 -158.890625 C 91.226562 -161.597656 87.78125 -162.953125 83.9375 -162.953125 Z M 83.9375 -162.953125 "/></g></g></g><g fill="#6f8f39" fill-opacity="1"><g transform="translate(1089.968257, 502.035698)"><g><path d="M 10.671875 -158.671875 C 10.671875 -166.648438 12.769531 -173.878906 16.96875 -180.359375 C 21.175781 -186.835938 26.835938 -192 33.953125 -195.84375 C 41.078125 -199.6875 48.910156 -201.609375 57.453125 -201.609375 L 57.453125 -42.5 C 57.453125 -34.664062 55.347656 -27.507812 51.140625 -21.03125 C 46.941406 -14.550781 41.316406 -9.390625 34.265625 -5.546875 C 27.222656 -1.703125 19.359375 0.21875 10.671875 0.21875 Z M 10.671875 -158.671875 "/></g></g></g><g fill="#6f8f39" fill-opacity="1"><g transform="translate(1156.601979, 502.035698)"><g><path d="M 54.890625 -79.875 L 54.890625 -48.046875 L 131.125 -48.046875 C 131.125 -39.222656 129.054688 -31.210938 124.921875 -24.015625 C 120.796875 -16.828125 115.242188 -11.132812 108.265625 -6.9375 C 101.296875 -2.738281 93.46875 -0.640625 84.78125 -0.640625 L 53.8125 -0.640625 C 45.414062 -0.640625 37.800781 -2.664062 30.96875 -6.71875 C 24.132812 -10.78125 18.648438 -16.226562 14.515625 -23.0625 C 10.390625 -29.894531 8.328125 -37.515625 8.328125 -45.921875 L 8.328125 -155.46875 C 8.328125 -164.007812 10.425781 -171.769531 14.625 -178.75 C 18.820312 -185.726562 24.410156 -191.316406 31.390625 -195.515625 C 38.367188 -199.710938 46.128906 -201.8125 54.671875 -201.8125 L 141.375 -201.8125 C 141.375 -193.132812 139.554688 -185.195312 135.921875 -178 C 132.296875 -170.8125 127.242188 -165.082031 120.765625 -160.8125 C 114.285156 -156.539062 106.707031 -154.40625 98.03125 -154.40625 L 54.890625 -154.40625 L 54.890625 -123.859375 L 111.484375 -123.859375 L 101.234375 -79.875 Z M 54.890625 -79.875 "/></g></g></g><g fill="#6f8f39" fill-opacity="1"><g transform="translate(1287.733776, 502.035698)"><g><path d="M 165.515625 -162.3125 L 81.375 -44.203125 L 167.859375 -44.203125 C 167.859375 -35.234375 165.9375 -27.507812 162.09375 -21.03125 C 158.25 -14.550781 153.125 -9.53125 146.71875 -5.96875 C 140.3125 -2.414062 133.332031 -0.640625 125.78125 -0.640625 L 5.125 -0.640625 C 5.125 -3.628906 5.65625 -6.972656 6.71875 -10.671875 C 7.789062 -14.378906 9.003906 -17.90625 10.359375 -21.25 C 11.710938 -24.59375 12.921875 -27.332031 13.984375 -29.46875 C 15.054688 -31.601562 15.59375 -32.671875 15.59375 -32.671875 C 15.59375 -32.671875 15.945312 -33.414062 16.65625 -34.90625 C 17.363281 -36.40625 18.285156 -38.113281 19.421875 -40.03125 C 20.566406 -41.957031 21.640625 -43.5625 22.640625 -44.84375 C 25.910156 -49.257812 30.25 -54.988281 35.65625 -62.03125 C 41.070312 -69.082031 46.910156 -76.804688 53.171875 -85.203125 C 59.441406 -93.609375 65.707031 -101.9375 71.96875 -110.1875 C 78.238281 -118.445312 83.9375 -126.03125 89.0625 -132.9375 C 94.1875 -139.84375 98.3125 -145.394531 101.4375 -149.59375 C 104.570312 -153.800781 106.140625 -155.90625 106.140625 -155.90625 L 21.5625 -155.90625 C 21.5625 -164.875 23.378906 -172.5625 27.015625 -178.96875 C 30.648438 -185.375 35.5625 -190.320312 41.75 -193.8125 C 47.945312 -197.300781 54.816406 -199.046875 62.359375 -199.046875 L 177.46875 -199.046875 C 177.46875 -191.785156 176.363281 -185.160156 174.15625 -179.171875 C 171.945312 -173.191406 169.066406 -167.570312 165.515625 -162.3125 Z M 165.515625 -162.3125 "/></g></g></g><g fill="#6f8f39" fill-opacity="1"><g transform="translate(58.641351, 800.535672)"><g/></g></g><g fill="#6f8f39" fill-opacity="1"><g transform="translate(122.712237, 800.535672)"><g/></g></g><g fill="#6f8f39" fill-opacity="1"><g transform="translate(186.784127, 800.535672)"><g><path d="M 165.71875 -161.875 L 81.375 -43.78125 L 167.859375 -43.78125 C 167.859375 -34.8125 165.9375 -27.050781 162.09375 -20.5 C 158.25 -13.945312 153.160156 -8.890625 146.828125 -5.328125 C 140.492188 -1.773438 133.550781 0 126 0 L 5.34375 0 C 5.34375 -3.132812 5.875 -6.550781 6.9375 -10.25 C 8.007812 -13.945312 9.21875 -17.46875 10.5625 -20.8125 C 11.914062 -24.164062 13.09375 -26.910156 14.09375 -29.046875 C 15.09375 -31.179688 15.59375 -32.25 15.59375 -32.25 C 15.59375 -32.25 15.984375 -32.992188 16.765625 -34.484375 C 17.546875 -35.984375 18.46875 -37.65625 19.53125 -39.5 C 20.601562 -41.351562 21.640625 -42.921875 22.640625 -44.203125 C 26.054688 -48.617188 30.429688 -54.382812 35.765625 -61.5 C 41.109375 -68.625 46.945312 -76.347656 53.28125 -84.671875 C 59.613281 -93.003906 65.878906 -101.332031 72.078125 -109.65625 C 78.273438 -117.988281 83.96875 -125.609375 89.15625 -132.515625 C 94.351562 -139.421875 98.519531 -144.9375 101.65625 -149.0625 C 104.789062 -153.195312 106.359375 -155.265625 106.359375 -155.265625 L 21.5625 -155.265625 C 21.5625 -164.234375 23.410156 -171.957031 27.109375 -178.4375 C 30.816406 -184.914062 35.765625 -189.863281 41.953125 -193.28125 C 48.148438 -196.695312 55.023438 -198.40625 62.578125 -198.40625 L 177.6875 -198.40625 C 177.6875 -191.144531 176.546875 -184.519531 174.265625 -178.53125 C 171.984375 -172.550781 169.132812 -167 165.71875 -161.875 Z M 165.71875 -161.875 "/></g></g></g><g fill="#6f8f39" fill-opacity="1"><g transform="translate(369.813271, 800.535672)"><g><path d="M 153.984375 -183.234375 C 155.972656 -180.097656 157.535156 -176.644531 158.671875 -172.875 C 159.816406 -169.101562 160.390625 -165.15625 160.390625 -161.03125 L 160.390625 -41 C 160.390625 -33.03125 158.394531 -25.945312 154.40625 -19.75 C 150.414062 -13.5625 145.039062 -8.546875 138.28125 -4.703125 C 131.519531 -0.859375 124.082031 1.421875 115.96875 2.140625 C 113.40625 2.421875 109.703125 2.628906 104.859375 2.765625 C 100.015625 2.910156 95.101562 3.019531 90.125 3.09375 C 85.144531 3.164062 81.226562 3.203125 78.375 3.203125 C 74.25 3.203125 70.265625 3.09375 66.421875 2.875 C 62.578125 2.664062 58.875 2.421875 55.3125 2.140625 C 49.1875 1.710938 43.382812 0.46875 37.90625 -1.59375 C 32.425781 -3.664062 27.691406 -6.691406 23.703125 -10.671875 C 20.566406 -13.234375 18.429688 -15.941406 17.296875 -18.796875 C 15.160156 -22.066406 13.519531 -25.585938 12.375 -29.359375 C 11.238281 -33.140625 10.671875 -37.019531 10.671875 -41 L 10.671875 -161.03125 C 10.671875 -169 12.695312 -176.078125 16.75 -182.265625 C 20.8125 -188.460938 26.1875 -193.484375 32.875 -197.328125 C 39.570312 -201.171875 47.050781 -203.453125 55.3125 -204.171875 C 63.144531 -205.023438 71.1875 -205.453125 79.4375 -205.453125 C 82.144531 -205.453125 85.921875 -205.378906 90.765625 -205.234375 C 95.609375 -205.085938 100.410156 -204.941406 105.171875 -204.796875 C 109.941406 -204.660156 113.539062 -204.453125 115.96875 -204.171875 C 122.082031 -203.742188 127.878906 -202.492188 133.359375 -200.421875 C 138.847656 -198.359375 143.585938 -195.335938 147.578125 -191.359375 C 150.703125 -188.796875 152.835938 -186.085938 153.984375 -183.234375 Z M 115.96875 -54.671875 L 115.96875 -148.421875 C 115.394531 -151.835938 114.078125 -154.578125 112.015625 -156.640625 C 109.953125 -158.710938 107.140625 -159.75 103.578125 -159.75 L 67.484375 -159.953125 C 64.066406 -159.953125 61.289062 -158.882812 59.15625 -156.75 C 57.019531 -154.613281 55.738281 -151.910156 55.3125 -148.640625 L 55.3125 -54.671875 C 55.738281 -51.398438 57.019531 -48.695312 59.15625 -46.5625 C 61.289062 -44.425781 64.140625 -43.359375 67.703125 -43.359375 L 103.578125 -43.359375 C 107.140625 -43.359375 109.953125 -44.425781 112.015625 -46.5625 C 114.078125 -48.695312 115.394531 -51.398438 115.96875 -54.671875 Z M 115.96875 -54.671875 "/></g></g></g><g fill="#6f8f39" fill-opacity="1"><g transform="translate(541.309659, 800.535672)"><g><path d="M 195.40625 -201.171875 L 195.40625 -49.546875 C 195.40625 -40.296875 193.160156 -31.929688 188.671875 -24.453125 C 184.191406 -16.972656 178.210938 -10.988281 170.734375 -6.5 C 163.265625 -2.019531 154.90625 0.21875 145.65625 0.21875 L 145.65625 -120.015625 L 103.359375 -69.625 L 60.65625 -118.3125 L 60.65625 -49.546875 C 60.65625 -40.296875 58.410156 -31.929688 53.921875 -24.453125 C 49.441406 -16.972656 43.425781 -10.988281 35.875 -6.5 C 28.332031 -2.019531 19.929688 0.21875 10.671875 0.21875 L 10.671875 -151.84375 C 10.671875 -160.957031 12.910156 -169.285156 17.390625 -176.828125 C 21.878906 -184.378906 27.894531 -190.394531 35.4375 -194.875 C 42.988281 -199.363281 51.394531 -201.609375 60.65625 -201.609375 L 103.359375 -138.171875 L 145.65625 -201.171875 Z M 195.40625 -201.171875 "/></g></g></g><g fill="#6f8f39" fill-opacity="1"><g transform="translate(747.831509, 800.535672)"><g><path d="M 130.265625 -111.265625 C 135.960938 -106.566406 140.128906 -101.015625 142.765625 -94.609375 C 145.398438 -88.203125 146.71875 -81.222656 146.71875 -73.671875 L 146.71875 -55.734375 C 146.71875 -49.753906 145.6875 -43.523438 143.625 -37.046875 C 141.5625 -30.578125 138.460938 -24.597656 134.328125 -19.109375 C 130.203125 -13.628906 125.179688 -9.179688 119.265625 -5.765625 C 113.359375 -2.347656 106.5625 -0.640625 98.875 -0.640625 L 57.875 -0.640625 C 53.175781 -0.640625 49.117188 -1.242188 45.703125 -2.453125 C 42.285156 -3.660156 39.296875 -5.117188 36.734375 -6.828125 C 33.316406 -4.410156 29.398438 -2.523438 24.984375 -1.171875 C 20.566406 0.179688 15.796875 0.859375 10.671875 0.859375 L 10.671875 -158.03125 C 10.671875 -165.863281 12.378906 -173.019531 15.796875 -179.5 C 19.210938 -185.976562 23.984375 -191.207031 30.109375 -195.1875 C 36.234375 -199.175781 43.425781 -201.316406 51.6875 -201.609375 C 52.25 -201.609375 52.816406 -201.609375 53.390625 -201.609375 L 85 -201.609375 C 91.550781 -201.609375 98.0625 -200.253906 104.53125 -197.546875 C 111.007812 -194.835938 116.914062 -191.097656 122.25 -186.328125 C 127.59375 -181.554688 131.867188 -175.96875 135.078125 -169.5625 C 138.285156 -163.15625 139.890625 -156.320312 139.890625 -149.0625 C 139.890625 -141.800781 139.640625 -136.175781 139.140625 -132.1875 C 138.640625 -128.207031 137.960938 -125.113281 137.109375 -122.90625 C 136.253906 -120.695312 135.21875 -118.804688 134 -117.234375 C 132.789062 -115.671875 131.546875 -113.679688 130.265625 -111.265625 Z M 105.71875 -57.015625 L 105.71875 -67.90625 C 105.71875 -72.601562 104.007812 -76.625 100.59375 -79.96875 C 97.175781 -83.320312 93.257812 -84.925781 88.84375 -84.78125 L 53.8125 -84.78125 L 53.8125 -41.640625 C 53.8125 -41.359375 53.8125 -41.109375 53.8125 -40.890625 C 53.8125 -40.679688 53.8125 -40.4375 53.8125 -40.15625 L 88.84375 -40.15625 C 93.257812 -40.4375 97.175781 -42.140625 100.59375 -45.265625 C 104.007812 -48.398438 105.71875 -52.316406 105.71875 -57.015625 Z M 83.9375 -162.953125 L 53.8125 -162.953125 L 53.8125 -121.09375 L 85 -121.09375 C 88.84375 -121.09375 92.113281 -122.441406 94.8125 -125.140625 C 97.519531 -127.847656 98.875 -131.125 98.875 -134.96875 L 98.875 -149.0625 C 98.875 -152.90625 97.34375 -156.179688 94.28125 -158.890625 C 91.226562 -161.597656 87.78125 -162.953125 83.9375 -162.953125 Z M 83.9375 -162.953125 "/></g></g></g><g fill="#6f8f39" fill-opacity="1"><g transform="translate(897.757336, 800.535672)"><g><path d="M 10.671875 -158.671875 C 10.671875 -166.648438 12.769531 -173.878906 16.96875 -180.359375 C 21.175781 -186.835938 26.835938 -192 33.953125 -195.84375 C 41.078125 -199.6875 48.910156 -201.609375 57.453125 -201.609375 L 57.453125 -42.5 C 57.453125 -34.664062 55.347656 -27.507812 51.140625 -21.03125 C 46.941406 -14.550781 41.316406 -9.390625 34.265625 -5.546875 C 27.222656 -1.703125 19.359375 0.21875 10.671875 0.21875 Z M 10.671875 -158.671875 "/></g></g></g><g fill="#6f8f39" fill-opacity="1"><g transform="translate(964.391059, 800.535672)"><g><path d="M 54.890625 -79.875 L 54.890625 -48.046875 L 131.125 -48.046875 C 131.125 -39.222656 129.054688 -31.210938 124.921875 -24.015625 C 120.796875 -16.828125 115.242188 -11.132812 108.265625 -6.9375 C 101.296875 -2.738281 93.46875 -0.640625 84.78125 -0.640625 L 53.8125 -0.640625 C 45.414062 -0.640625 37.800781 -2.664062 30.96875 -6.71875 C 24.132812 -10.78125 18.648438 -16.226562 14.515625 -23.0625 C 10.390625 -29.894531 8.328125 -37.515625 8.328125 -45.921875 L 8.328125 -155.46875 C 8.328125 -164.007812 10.425781 -171.769531 14.625 -178.75 C 18.820312 -185.726562 24.410156 -191.316406 31.390625 -195.515625 C 38.367188 -199.710938 46.128906 -201.8125 54.671875 -201.8125 L 141.375 -201.8125 C 141.375 -193.132812 139.554688 -185.195312 135.921875 -178 C 132.296875 -170.8125 127.242188 -165.082031 120.765625 -160.8125 C 114.285156 -156.539062 106.707031 -154.40625 98.03125 -154.40625 L 54.890625 -154.40625 L 54.890625 -123.859375 L 111.484375 -123.859375 L 101.234375 -79.875 Z M 54.890625 -79.875 "/></g></g></g><g fill="#6f8f39" fill-opacity="1"><g transform="translate(1095.522855, 800.535672)"><g><path d="M 165.515625 -162.3125 L 81.375 -44.203125 L 167.859375 -44.203125 C 167.859375 -35.234375 165.9375 -27.507812 162.09375 -21.03125 C 158.25 -14.550781 153.125 -9.53125 146.71875 -5.96875 C 140.3125 -2.414062 133.332031 -0.640625 125.78125 -0.640625 L 5.125 -0.640625 C 5.125 -3.628906 5.65625 -6.972656 6.71875 -10.671875 C 7.789062 -14.378906 9.003906 -17.90625 10.359375 -21.25 C 11.710938 -24.59375 12.921875 -27.332031 13.984375 -29.46875 C 15.054688 -31.601562 15.59375 -32.671875 15.59375 -32.671875 C 15.59375 -32.671875 15.945312 -33.414062 16.65625 -34.90625 C 17.363281 -36.40625 18.285156 -38.113281 19.421875 -40.03125 C 20.566406 -41.957031 21.640625 -43.5625 22.640625 -44.84375 C 25.910156 -49.257812 30.25 -54.988281 35.65625 -62.03125 C 41.070312 -69.082031 46.910156 -76.804688 53.171875 -85.203125 C 59.441406 -93.609375 65.707031 -101.9375 71.96875 -110.1875 C 78.238281 -118.445312 83.9375 -126.03125 89.0625 -132.9375 C 94.1875 -139.84375 98.3125 -145.394531 101.4375 -149.59375 C 104.570312 -153.800781 106.140625 -155.90625 106.140625 -155.90625 L 21.5625 -155.90625 C 21.5625 -164.875 23.378906 -172.5625 27.015625 -178.96875 C 30.648438 -185.375 35.5625 -190.320312 41.75 -193.8125 C 47.945312 -197.300781 54.816406 -199.046875 62.359375 -199.046875 L 177.46875 -199.046875 C 177.46875 -191.785156 176.363281 -185.160156 174.15625 -179.171875 C 171.945312 -173.191406 169.066406 -167.570312 165.515625 -162.3125 Z M 165.515625 -162.3125 "/></g></g></g><g fill="#6f8f39" fill-opacity="1"><g transform="translate(26.600551, 1099.035646)"><g><path d="M 165.71875 -161.875 L 81.375 -43.78125 L 167.859375 -43.78125 C 167.859375 -34.8125 165.9375 -27.050781 162.09375 -20.5 C 158.25 -13.945312 153.160156 -8.890625 146.828125 -5.328125 C 140.492188 -1.773438 133.550781 0 126 0 L 5.34375 0 C 5.34375 -3.132812 5.875 -6.550781 6.9375 -10.25 C 8.007812 -13.945312 9.21875 -17.46875 10.5625 -20.8125 C 11.914062 -24.164062 13.09375 -26.910156 14.09375 -29.046875 C 15.09375 -31.179688 15.59375 -32.25 15.59375 -32.25 C 15.59375 -32.25 15.984375 -32.992188 16.765625 -34.484375 C 17.546875 -35.984375 18.46875 -37.65625 19.53125 -39.5 C 20.601562 -41.351562 21.640625 -42.921875 22.640625 -44.203125 C 26.054688 -48.617188 30.429688 -54.382812 35.765625 -61.5 C 41.109375 -68.625 46.945312 -76.347656 53.28125 -84.671875 C 59.613281 -93.003906 65.878906 -101.332031 72.078125 -109.65625 C 78.273438 -117.988281 83.96875 -125.609375 89.15625 -132.515625 C 94.351562 -139.421875 98.519531 -144.9375 101.65625 -149.0625 C 104.789062 -153.195312 106.359375 -155.265625 106.359375 -155.265625 L 21.5625 -155.265625 C 21.5625 -164.234375 23.410156 -171.957031 27.109375 -178.4375 C 30.816406 -184.914062 35.765625 -189.863281 41.953125 -193.28125 C 48.148438 -196.695312 55.023438 -198.40625 62.578125 -198.40625 L 177.6875 -198.40625 C 177.6875 -191.144531 176.546875 -184.519531 174.265625 -178.53125 C 171.984375 -172.550781 169.132812 -167 165.71875 -161.875 Z M 165.71875 -161.875 "/></g></g></g><g fill="#6f8f39" fill-opacity="1"><g transform="translate(209.629695, 1099.035646)"><g><path d="M 153.984375 -183.234375 C 155.972656 -180.097656 157.535156 -176.644531 158.671875 -172.875 C 159.816406 -169.101562 160.390625 -165.15625 160.390625 -161.03125 L 160.390625 -41 C 160.390625 -33.03125 158.394531 -25.945312 154.40625 -19.75 C 150.414062 -13.5625 145.039062 -8.546875 138.28125 -4.703125 C 131.519531 -0.859375 124.082031 1.421875 115.96875 2.140625 C 113.40625 2.421875 109.703125 2.628906 104.859375 2.765625 C 100.015625 2.910156 95.101562 3.019531 90.125 3.09375 C 85.144531 3.164062 81.226562 3.203125 78.375 3.203125 C 74.25 3.203125 70.265625 3.09375 66.421875 2.875 C 62.578125 2.664062 58.875 2.421875 55.3125 2.140625 C 49.1875 1.710938 43.382812 0.46875 37.90625 -1.59375 C 32.425781 -3.664062 27.691406 -6.691406 23.703125 -10.671875 C 20.566406 -13.234375 18.429688 -15.941406 17.296875 -18.796875 C 15.160156 -22.066406 13.519531 -25.585938 12.375 -29.359375 C 11.238281 -33.140625 10.671875 -37.019531 10.671875 -41 L 10.671875 -161.03125 C 10.671875 -169 12.695312 -176.078125 16.75 -182.265625 C 20.8125 -188.460938 26.1875 -193.484375 32.875 -197.328125 C 39.570312 -201.171875 47.050781 -203.453125 55.3125 -204.171875 C 63.144531 -205.023438 71.1875 -205.453125 79.4375 -205.453125 C 82.144531 -205.453125 85.921875 -205.378906 90.765625 -205.234375 C 95.609375 -205.085938 100.410156 -204.941406 105.171875 -204.796875 C 109.941406 -204.660156 113.539062 -204.453125 115.96875 -204.171875 C 122.082031 -203.742188 127.878906 -202.492188 133.359375 -200.421875 C 138.847656 -198.359375 143.585938 -195.335938 147.578125 -191.359375 C 150.703125 -188.796875 152.835938 -186.085938 153.984375 -183.234375 Z M 115.96875 -54.671875 L 115.96875 -148.421875 C 115.394531 -151.835938 114.078125 -154.578125 112.015625 -156.640625 C 109.953125 -158.710938 107.140625 -159.75 103.578125 -159.75 L 67.484375 -159.953125 C 64.066406 -159.953125 61.289062 -158.882812 59.15625 -156.75 C 57.019531 -154.613281 55.738281 -151.910156 55.3125 -148.640625 L 55.3125 -54.671875 C 55.738281 -51.398438 57.019531 -48.695312 59.15625 -46.5625 C 61.289062 -44.425781 64.140625 -43.359375 67.703125 -43.359375 L 103.578125 -43.359375 C 107.140625 -43.359375 109.953125 -44.425781 112.015625 -46.5625 C 114.078125 -48.695312 115.394531 -51.398438 115.96875 -54.671875 Z M 115.96875 -54.671875 "/></g></g></g><g fill="#6f8f39" fill-opacity="1"><g transform="translate(381.126083, 1099.035646)"><g><path d="M 195.40625 -201.171875 L 195.40625 -49.546875 C 195.40625 -40.296875 193.160156 -31.929688 188.671875 -24.453125 C 184.191406 -16.972656 178.210938 -10.988281 170.734375 -6.5 C 163.265625 -2.019531 154.90625 0.21875 145.65625 0.21875 L 145.65625 -120.015625 L 103.359375 -69.625 L 60.65625 -118.3125 L 60.65625 -49.546875 C 60.65625 -40.296875 58.410156 -31.929688 53.921875 -24.453125 C 49.441406 -16.972656 43.425781 -10.988281 35.875 -6.5 C 28.332031 -2.019531 19.929688 0.21875 10.671875 0.21875 L 10.671875 -151.84375 C 10.671875 -160.957031 12.910156 -169.285156 17.390625 -176.828125 C 21.878906 -184.378906 27.894531 -190.394531 35.4375 -194.875 C 42.988281 -199.363281 51.394531 -201.609375 60.65625 -201.609375 L 103.359375 -138.171875 L 145.65625 -201.171875 Z M 195.40625 -201.171875 "/></g></g></g><g fill="#6f8f39" fill-opacity="1"><g transform="translate(587.647933, 1099.035646)"><g><path d="M 130.265625 -111.265625 C 135.960938 -106.566406 140.128906 -101.015625 142.765625 -94.609375 C 145.398438 -88.203125 146.71875 -81.222656 146.71875 -73.671875 L 146.71875 -55.734375 C 146.71875 -49.753906 145.6875 -43.523438 143.625 -37.046875 C 141.5625 -30.578125 138.460938 -24.597656 134.328125 -19.109375 C 130.203125 -13.628906 125.179688 -9.179688 119.265625 -5.765625 C 113.359375 -2.347656 106.5625 -0.640625 98.875 -0.640625 L 57.875 -0.640625 C 53.175781 -0.640625 49.117188 -1.242188 45.703125 -2.453125 C 42.285156 -3.660156 39.296875 -5.117188 36.734375 -6.828125 C 33.316406 -4.410156 29.398438 -2.523438 24.984375 -1.171875 C 20.566406 0.179688 15.796875 0.859375 10.671875 0.859375 L 10.671875 -158.03125 C 10.671875 -165.863281 12.378906 -173.019531 15.796875 -179.5 C 19.210938 -185.976562 23.984375 -191.207031 30.109375 -195.1875 C 36.234375 -199.175781 43.425781 -201.316406 51.6875 -201.609375 C 52.25 -201.609375 52.816406 -201.609375 53.390625 -201.609375 L 85 -201.609375 C 91.550781 -201.609375 98.0625 -200.253906 104.53125 -197.546875 C 111.007812 -194.835938 116.914062 -191.097656 122.25 -186.328125 C 127.59375 -181.554688 131.867188 -175.96875 135.078125 -169.5625 C 138.285156 -163.15625 139.890625 -156.320312 139.890625 -149.0625 C 139.890625 -141.800781 139.640625 -136.175781 139.140625 -132.1875 C 138.640625 -128.207031 137.960938 -125.113281 137.109375 -122.90625 C 136.253906 -120.695312 135.21875 -118.804688 134 -117.234375 C 132.789062 -115.671875 131.546875 -113.679688 130.265625 -111.265625 Z M 105.71875 -57.015625 L 105.71875 -67.90625 C 105.71875 -72.601562 104.007812 -76.625 100.59375 -79.96875 C 97.175781 -83.320312 93.257812 -84.925781 88.84375 -84.78125 L 53.8125 -84.78125 L 53.8125 -41.640625 C 53.8125 -41.359375 53.8125 -41.109375 53.8125 -40.890625 C 53.8125 -40.679688 53.8125 -40.4375 53.8125 -40.15625 L 88.84375 -40.15625 C 93.257812 -40.4375 97.175781 -42.140625 100.59375 -45.265625 C 104.007812 -48.398438 105.71875 -52.316406 105.71875 -57.015625 Z M 83.9375 -162.953125 L 53.8125 -162.953125 L 53.8125 -121.09375 L 85 -121.09375 C 88.84375 -121.09375 92.113281 -122.441406 94.8125 -125.140625 C 97.519531 -127.847656 98.875 -131.125 98.875 -134.96875 L 98.875 -149.0625 C 98.875 -152.90625 97.34375 -156.179688 94.28125 -158.890625 C 91.226562 -161.597656 87.78125 -162.953125 83.9375 -162.953125 Z M 83.9375 -162.953125 "/></g></g></g><g fill="#6f8f39" fill-opacity="1"><g transform="translate(737.57376, 1099.035646)"><g><path d="M 10.671875 -158.671875 C 10.671875 -166.648438 12.769531 -173.878906 16.96875 -180.359375 C 21.175781 -186.835938 26.835938 -192 33.953125 -195.84375 C 41.078125 -199.6875 48.910156 -201.609375 57.453125 -201.609375 L 57.453125 -42.5 C 57.453125 -34.664062 55.347656 -27.507812 51.140625 -21.03125 C 46.941406 -14.550781 41.316406 -9.390625 34.265625 -5.546875 C 27.222656 -1.703125 19.359375 0.21875 10.671875 0.21875 Z M 10.671875 -158.671875 "/></g></g></g><g fill="#6f8f39" fill-opacity="1"><g transform="translate(804.207482, 1099.035646)"><g><path d="M 54.890625 -79.875 L 54.890625 -48.046875 L 131.125 -48.046875 C 131.125 -39.222656 129.054688 -31.210938 124.921875 -24.015625 C 120.796875 -16.828125 115.242188 -11.132812 108.265625 -6.9375 C 101.296875 -2.738281 93.46875 -0.640625 84.78125 -0.640625 L 53.8125 -0.640625 C 45.414062 -0.640625 37.800781 -2.664062 30.96875 -6.71875 C 24.132812 -10.78125 18.648438 -16.226562 14.515625 -23.0625 C 10.390625 -29.894531 8.328125 -37.515625 8.328125 -45.921875 L 8.328125 -155.46875 C 8.328125 -164.007812 10.425781 -171.769531 14.625 -178.75 C 18.820312 -185.726562 24.410156 -191.316406 31.390625 -195.515625 C 38.367188 -199.710938 46.128906 -201.8125 54.671875 -201.8125 L 141.375 -201.8125 C 141.375 -193.132812 139.554688 -185.195312 135.921875 -178 C 132.296875 -170.8125 127.242188 -165.082031 120.765625 -160.8125 C 114.285156 -156.539062 106.707031 -154.40625 98.03125 -154.40625 L 54.890625 -154.40625 L 54.890625 -123.859375 L 111.484375 -123.859375 L 101.234375 -79.875 Z M 54.890625 -79.875 "/></g></g></g><g fill="#6f8f39" fill-opacity="1"><g transform="translate(935.339279, 1099.035646)"><g><path d="M 165.515625 -162.3125 L 81.375 -44.203125 L 167.859375 -44.203125 C 167.859375 -35.234375 165.9375 -27.507812 162.09375 -21.03125 C 158.25 -14.550781 153.125 -9.53125 146.71875 -5.96875 C 140.3125 -2.414062 133.332031 -0.640625 125.78125 -0.640625 L 5.125 -0.640625 C 5.125 -3.628906 5.65625 -6.972656 6.71875 -10.671875 C 7.789062 -14.378906 9.003906 -17.90625 10.359375 -21.25 C 11.710938 -24.59375 12.921875 -27.332031 13.984375 -29.46875 C 15.054688 -31.601562 15.59375 -32.671875 15.59375 -32.671875 C 15.59375 -32.671875 15.945312 -33.414062 16.65625 -34.90625 C 17.363281 -36.40625 18.285156 -38.113281 19.421875 -40.03125 C 20.566406 -41.957031 21.640625 -43.5625 22.640625 -44.84375 C 25.910156 -49.257812 30.25 -54.988281 35.65625 -62.03125 C 41.070312 -69.082031 46.910156 -76.804688 53.171875 -85.203125 C 59.441406 -93.609375 65.707031 -101.9375 71.96875 -110.1875 C 78.238281 -118.445312 83.9375 -126.03125 89.0625 -132.9375 C 94.1875 -139.84375 98.3125 -145.394531 101.4375 -149.59375 C 104.570312 -153.800781 106.140625 -155.90625 106.140625 -155.90625 L 21.5625 -155.90625 C 21.5625 -164.875 23.378906 -172.5625 27.015625 -178.96875 C 30.648438 -185.375 35.5625 -190.320312 41.75 -193.8125 C 47.945312 -197.300781 54.816406 -199.046875 62.359375 -199.046875 L 177.46875 -199.046875 C 177.46875 -191.785156 176.363281 -185.160156 174.15625 -179.171875 C 171.945312 -173.191406 169.066406 -167.570312 165.515625 -162.3125 Z M 165.515625 -162.3125 "/></g></g></g></svg>